<?xml version="1.0" encoding="UTF-8" standalone="no"?>
<svg
   xmlns:dc="http://purl.org/dc/elements/1.1/"
   xmlns:cc="http://creativecommons.org/ns#"
   xmlns:rdf="http://www.w3.org/1999/02/22-rdf-syntax-ns#"
   xmlns:svg="http://www.w3.org/2000/svg"
   xmlns="http://www.w3.org/2000/svg"
   xmlns:sodipodi="http://sodipodi.sourceforge.net/DTD/sodipodi-0.dtd"
   xmlns:inkscape="http://www.inkscape.org/namespaces/inkscape"
   id="svg8"
   version="1.1"
   viewBox="0 0 200 100"
   height="100mm"
   width="200mm"
   sodipodi:docname="mdx-logo.svg"
   inkscape:version="0.92.5 (2060ec1f9f, 2020-04-08)">
  <sodipodi:namedview
     pagecolor="#ffffff"
     bordercolor="#666666"
     borderopacity="1"
     objecttolerance="10"
     gridtolerance="10"
     guidetolerance="10"
     inkscape:pageopacity="0"
     inkscape:pageshadow="2"
     inkscape:window-width="1848"
     inkscape:window-height="1016"
     id="namedview1031"
     showgrid="false"
     inkscape:zoom="0.85725"
     inkscape:cx="414.86817"
     inkscape:cy="65.795646"
     inkscape:window-x="72"
     inkscape:window-y="27"
     inkscape:window-maximized="1"
     inkscape:current-layer="layer4" />
  <defs
     id="defs2" />
  <metadata
     id="metadata5">
    <rdf:RDF>
      <cc:Work
         rdf:about="">
        <dc:format>image/svg+xml</dc:format>
        <dc:type
           rdf:resource="http://purl.org/dc/dcmitype/StillImage" />
        <dc:title />
      </cc:Work>
    </rdf:RDF>
  </metadata>
  <g
     id="layer3">
    <path
       id="path840"
       d="m 22.601315,88.931896 c -7e-6,2.731948 -2.214691,4.94662 -4.946636,4.94662 -2.731945,0 -4.946627,-2.214672 -4.946633,-4.94662 -10e-6,-2.731949 7.31e-4,-10.953739 7.31e-4,-10.953739 l 9.893065,-0.02601 c 0,0 -5.2e-4,9.615173 -5.27e-4,10.981149 z"
       style="opacity:1;fill:#c9c7c3;fill-opacity:1;stroke:#b4b0af;stroke-width:1.30058706;stroke-miterlimit:4;stroke-dasharray:none;stroke-opacity:1" />
    <path
       id="path840-3"
       d="m 50.380932,88.931896 c -8e-6,2.731948 -2.214694,4.94662 -4.946639,4.94662 -2.731944,0 -4.946626,-2.214672 -4.946631,-4.94662 -1e-5,-2.731949 7.3e-4,-10.953739 7.3e-4,-10.953739 l 9.893065,-0.02601 c 0,0 -5.21e-4,9.615173 -5.25e-4,10.981149 z"
       style="opacity:1;fill:#c9c7c3;fill-opacity:1;stroke:#b4b0af;stroke-width:1.30058706;stroke-miterlimit:4;stroke-dasharray:none;stroke-opacity:1" />
    <path
       id="path840-6"
       d="m 78.160553,88.931896 c -6e-6,2.731948 -2.214692,4.94662 -4.946637,4.94662 -2.731944,0 -4.946626,-2.214672 -4.946632,-4.94662 -1e-5,-2.731949 7.31e-4,-10.953739 7.31e-4,-10.953739 l 9.893065,-0.02601 c 0,0 -5.21e-4,9.615173 -5.27e-4,10.981149 z"
       style="opacity:1;fill:#c9c7c3;fill-opacity:1;stroke:#b4b0af;stroke-width:1.30058706;stroke-miterlimit:4;stroke-dasharray:none;stroke-opacity:1" />
    <path
       id="path840-3-7"
       d="m 105.94015,88.931896 c 0,2.731948 -2.21469,4.94662 -4.94663,4.94662 -2.73195,0 -4.946631,-2.214672 -4.946637,-4.94662 -10e-6,-2.731949 7.3e-4,-10.953739 7.3e-4,-10.953739 l 9.893067,-0.02601 c 0,0 -5.2e-4,9.615173 -5.3e-4,10.981149 z"
       style="opacity:1;fill:#c9c7c3;fill-opacity:1;stroke:#b4b0af;stroke-width:1.30058706;stroke-miterlimit:4;stroke-dasharray:none;stroke-opacity:1" />
    <path
       id="path840-5"
       d="m 133.71979,88.930498 c -1e-5,2.731947 -2.21468,4.946619 -4.94664,4.946619 -2.73195,0 -4.94663,-2.214672 -4.94663,-4.946619 -1e-5,-2.731948 7.3e-4,-10.953739 7.3e-4,-10.953739 l 9.89306,-0.02601 c 0,0 -5.2e-4,9.615175 -5.2e-4,10.981149 z"
       style="opacity:1;fill:#c9c7c3;fill-opacity:1;stroke:#b4b0af;stroke-width:1.30058706;stroke-miterlimit:4;stroke-dasharray:none;stroke-opacity:1" />
    <path
       id="path840-3-3"
       d="m 161.49938,88.930498 c 0,2.731947 -2.21468,4.946619 -4.94663,4.946619 -2.73194,0 -4.94663,-2.214672 -4.94663,-4.946619 -1e-5,-2.731948 7.3e-4,-10.953739 7.3e-4,-10.953739 l 9.89306,-0.02601 c 0,0 -5.1e-4,9.615175 -5.3e-4,10.981149 z"
       style="opacity:1;fill:#c9c7c3;fill-opacity:1;stroke:#b4b0af;stroke-width:1.30058706;stroke-miterlimit:4;stroke-dasharray:none;stroke-opacity:1" />
    <path
       id="path840-6-5"
       d="m 189.279,88.930498 c 0,2.731947 -2.21469,4.946619 -4.94663,4.946619 -2.73193,0 -4.94663,-2.214672 -4.94663,-4.946619 -1e-5,-2.731948 7.4e-4,-10.953739 7.4e-4,-10.953739 l 9.89306,-0.02601 c 0,0 -5.3e-4,9.615175 -5.4e-4,10.981149 z"
       style="opacity:1;fill:#c9c7c3;fill-opacity:1;stroke:#b4b0af;stroke-width:1.30058706;stroke-miterlimit:4;stroke-dasharray:none;stroke-opacity:1" />
    <path
       id="path840-36"
       d="m 22.600782,11.708868 c -7e-6,-2.7319451 -2.214692,-4.946621 -4.946636,-4.946621 -2.731945,0 -4.946628,2.2146759 -4.946633,4.946621 -10e-6,2.731947 7.31e-4,10.953743 7.31e-4,10.953743 l 9.893064,0.02601 c 0,0 -5.2e-4,-9.615173 -5.26e-4,-10.981151 z"
       style="opacity:1;fill:#c9c7c3;fill-opacity:1;stroke:#b4b0af;stroke-width:1.30058706;stroke-miterlimit:4;stroke-dasharray:none;stroke-opacity:1" />
    <path
       id="path840-3-0"
       d="m 50.380397,11.708868 c -6e-6,-2.7319451 -2.214691,-4.946621 -4.946637,-4.946621 -2.731944,0 -4.946626,2.2146759 -4.946633,4.946621 -1e-5,2.731947 7.33e-4,10.953743 7.33e-4,10.953743 l 9.893064,0.02601 c 0,0 -5.2e-4,-9.615173 -5.27e-4,-10.981151 z"
       style="opacity:1;fill:#c9c7c3;fill-opacity:1;stroke:#b4b0af;stroke-width:1.30058706;stroke-miterlimit:4;stroke-dasharray:none;stroke-opacity:1" />
    <path
       id="path840-6-6"
       d="m 78.160019,11.708868 c -5e-6,-2.7319451 -2.214691,-4.946621 -4.946636,-4.946621 -2.731945,0 -4.946626,2.2146759 -4.946633,4.946621 -1e-5,2.731947 7.31e-4,10.953743 7.31e-4,10.953743 l 9.893066,0.02601 c 0,0 -5.21e-4,-9.615173 -5.28e-4,-10.981151 z"
       style="opacity:1;fill:#c9c7c3;fill-opacity:1;stroke:#b4b0af;stroke-width:1.30058706;stroke-miterlimit:4;stroke-dasharray:none;stroke-opacity:1" />
    <path
       id="path840-3-7-2"
       d="m 105.93962,11.708868 c -1e-5,-2.7319451 -2.21469,-4.946621 -4.94663,-4.946621 -2.731955,0 -4.946634,2.2146759 -4.946641,4.946621 -1e-5,2.731947 7.31e-4,10.953743 7.31e-4,10.953743 l 9.89307,0.02601 c 0,0 -5.2e-4,-9.615173 -5.3e-4,-10.981151 z"
       style="opacity:1;fill:#c9c7c3;fill-opacity:1;stroke:#b4b0af;stroke-width:1.30058706;stroke-miterlimit:4;stroke-dasharray:none;stroke-opacity:1" />
    <path
       id="path840-5-6"
       d="m 133.71926,11.710269 c -2e-5,-2.7319475 -2.2147,-4.9466234 -4.94665,-4.9466234 -2.73195,0 -4.94662,2.2146759 -4.94663,4.9466234 0,2.731945 7.4e-4,10.953739 7.4e-4,10.953739 l 9.89306,0.02601 c 0,0 -5.1e-4,-9.615174 -5.2e-4,-10.981151 z"
       style="opacity:1;fill:#c9c7c3;fill-opacity:1;stroke:#b4b0af;stroke-width:1.30058706;stroke-miterlimit:4;stroke-dasharray:none;stroke-opacity:1" />
    <path
       id="path840-3-3-1"
       d="m 161.49885,11.710269 c 0,-2.7319475 -2.2147,-4.9466234 -4.94664,-4.9466234 -2.73193,0 -4.94661,2.2146759 -4.94663,4.9466234 0,2.731945 7.4e-4,10.953739 7.4e-4,10.953739 l 9.89306,0.02601 c 0,0 -5.1e-4,-9.615174 -5.3e-4,-10.981151 z"
       style="opacity:1;fill:#c9c7c3;fill-opacity:1;stroke:#b4b0af;stroke-width:1.30058706;stroke-miterlimit:4;stroke-dasharray:none;stroke-opacity:1" />
    <path
       id="path840-6-5-8"
       d="m 189.27848,11.710269 c -1e-5,-2.7319475 -2.2147,-4.9466234 -4.94664,-4.9466234 -2.73194,0 -4.94663,2.2146759 -4.94663,4.9466234 -1e-5,2.731945 7.3e-4,10.953739 7.3e-4,10.953739 l 9.89306,0.02601 c 0,0 -5.2e-4,-9.615174 -5.2e-4,-10.981151 z"
       style="opacity:1;fill:#c9c7c3;fill-opacity:1;stroke:#b4b0af;stroke-width:1.30058706;stroke-miterlimit:4;stroke-dasharray:none;stroke-opacity:1" />
  </g>
  <g
     transform="translate(0,-197)"
     id="layer1">
    <rect
       y="235.76646"
       x="4.9557624"
       height="21.89926"
       width="10.341316"
       id="rect837"
       style="opacity:1;fill:#333337;fill-opacity:0.51690823;stroke:none;stroke-width:1.95088077;stroke-miterlimit:4;stroke-dasharray:none;stroke-opacity:1" />
  </g>
  <g
     id="layer2">
    <path
       id="rect815"
       d="M 5.9341897,21.293228 V 41.02768 c 0.048717,-0.0017 0.097435,-0.0033 0.146181,-0.0052 5.2791663,1.62e-4 9.5587333,4.279733 9.5588983,9.558901 -1.7e-4,5.279159 -4.279736,9.558728 -9.5588983,9.558891 -0.048742,-0.0017 -0.097472,-0.0043 -0.146181,-0.0069 V 79.36212 H 195.81166 V 21.293228 Z"
       style="opacity:1;fill:#333237;fill-opacity:1;stroke:#3f3e3d;stroke-width:1.95099998;stroke-linecap:butt;stroke-linejoin:round;stroke-miterlimit:4;stroke-dasharray:none;stroke-opacity:1" />
  </g>
  <g
     id="layer4">
    <text
       id="text4675"
       y="63.468391"
       x="30.309683"
       style="font-style:normal;font-variant:normal;font-weight:bold;font-stretch:normal;font-size:48.17017365px;line-height:1.25;font-family:sans-serif;-inkscape-font-specification:'sans-serif, Bold';font-variant-ligatures:normal;font-variant-caps:normal;font-variant-numeric:normal;font-feature-settings:normal;text-align:start;letter-spacing:0px;word-spacing:0px;writing-mode:lr-tb;text-anchor:start;fill:#000000;fill-opacity:1;stroke:#444241;stroke-width:0.55274951;stroke-miterlimit:4;stroke-dasharray:none;stroke-opacity:1"
       xml:space="preserve"><tspan
         style="font-style:normal;font-variant:normal;font-weight:bold;font-stretch:normal;font-size:48.17017365px;font-family:sans-serif;-inkscape-font-specification:'sans-serif, Bold';font-variant-ligatures:normal;font-variant-caps:normal;font-variant-numeric:normal;font-feature-settings:normal;text-align:start;writing-mode:lr-tb;text-anchor:start;fill:#f9f9f9;fill-opacity:1;stroke:#444241;stroke-width:0.55274951;stroke-miterlimit:4;stroke-dasharray:none;stroke-opacity:1"
         y="63.468391"
         x="30.309683"
         id="tspan4673">vmcu</tspan></text>
  </g>
</svg>
